<?xml version="1.0" encoding="utf-8"?>
<!-- Generator: Adobe Illustrator 27.7.0, SVG Export Plug-In . SVG Version: 6.00 Build 0)  -->
<svg version="1.1" id="Ebene_1" xmlns="http://www.w3.org/2000/svg"
    xmlns:xlink="http://www.w3.org/1999/xlink" x="0px" y="0px"
    viewBox="0 0 373.2 205" style="enable-background:new 0 0 373.2 205;" xml:space="preserve">
<style type="text/css">
	.st0{fill:#004673;}
</style>
<path class="st0" d="M298.4,91.4c21.4,0,38.9,17.4,38.9,38.9s-17.4,38.9-38.9,38.9s-38.9-17.4-38.9-38.9S277,91.4,298.4,91.4
	 M223.5,130.2c0,21.4-17.4,38.9-38.9,38.9s-38.9-17.4-38.9-38.9s17.4-38.9,38.9-38.9S223.5,108.8,223.5,130.2 M298.4,55.5h-1.2
	L330.3,0h-41.8l-48.1,80.6c-13.7-15.4-33.6-25.1-55.8-25.1s-43.2,10.3-56.9,26.4C114,65.8,93.6,55.5,70.8,55.5
	c-4.8,0-9.5,0.5-14,1.3l7.8-20.9h85.8L171.7,0H39.6L10.4,78l32.4,25.2c7.1-7.3,17-11.9,28-11.9c21.4,0,38.9,17.4,38.9,38.9
	s-17.4,38.9-38.9,38.9c-16.4,0-30.4-10.2-36.1-24.6L0,154c10,29.6,37.9,51,70.8,51c22.8,0,43.2-10.3,56.9-26.4
	c13.7,16.1,34.1,26.4,56.9,26.4s43.2-10.3,56.9-26.4c13.7,16.1,34.1,26.4,56.9,26.4c41.2,0,74.8-33.5,74.8-74.8
	S339.6,55.5,298.4,55.5"/>
</svg>